<?xml version="1.0" encoding="utf-8"?>
<svg viewBox="103 146.982 271 252" width="112px" height="112px" xmlns="http://www.w3.org/2000/svg">
  <path d="M 173.086 331.778 C 173.086 335.807 176.579 339.073 180.913 339.073 C 185.224 339.073 188.725 335.807 188.725 331.778 C 188.725 327.758 185.224 324.496 180.913 324.496 C 176.579 324.496 173.086 327.758 173.086 331.778 Z M 182.113 335.162 L 180.721 335.592 L 182.113 335.162 Z M 272.785 331.778 C 272.785 335.807 276.284 339.073 280.608 339.073 C 284.923 339.073 288.423 335.807 288.423 331.778 C 288.423 327.758 284.923 324.496 280.608 324.496 C 276.284 324.496 272.785 327.758 272.785 331.778 Z M 179.512 332.207 L 180.721 335.592 L 183.504 334.732 L 182.291 331.349 L 179.512 332.207 Z M 180.721 335.592 C 197.388 382.233 269.076 379.772 282.027 332.119 L 279.18 331.448 C 266.954 376.459 199.251 378.777 183.504 334.732 L 180.721 335.592 Z" style="fill: rgb(34, 34, 34);"/>
  <path d="M 178.948 222.492 C 177.854 222.492 176.902 222.134 176.08 221.42 C 175.304 220.65 174.924 219.764 174.924 218.743 L 174.924 174.218 C 174.924 170.244 177.497 168.251 182.645 168.251 L 182.645 216.142 L 207.853 216.142 C 209.763 216.142 211.239 216.705 212.279 217.822 C 213.318 218.901 213.843 220.449 213.843 222.492 L 178.948 222.492 Z M 223.377 223.181 C 218.671 223.181 214.874 222.007 211.972 219.663 C 209.126 217.313 207.698 214.229 207.698 210.399 C 207.698 206.527 209.202 203.424 212.214 201.071 C 215.222 198.68 219.189 197.476 224.12 197.476 C 229.375 197.476 233.696 199.207 237.091 202.679 L 237.419 202.373 C 236.816 201.756 236.139 201.127 235.365 200.458 L 235.365 197.242 C 235.365 194.645 234.498 192.635 232.736 191.203 C 230.985 189.773 228.497 189.061 225.267 189.061 C 219.521 189.061 215.423 191.179 212.959 195.41 C 212.075 195.001 211.338 194.468 210.732 193.801 C 210.191 193.094 209.91 192.373 209.91 191.656 C 209.91 190.283 210.663 188.982 212.128 187.76 C 213.611 186.486 215.552 185.467 217.959 184.696 C 220.425 183.93 222.997 183.55 225.681 183.55 C 230.877 183.55 234.957 184.75 237.915 187.146 C 240.924 189.545 242.436 192.861 242.436 197.088 L 242.436 218.055 C 242.436 219.844 241.887 221.144 240.788 221.956 C 239.699 222.775 237.966 223.181 235.611 223.181 L 235.611 219.584 C 236.761 218.464 237.388 217.802 237.504 217.591 L 237.173 217.293 C 233.611 221.219 229.018 223.181 223.377 223.181 Z M 224.615 217.899 C 228.004 217.899 230.659 217.24 232.577 215.912 C 234.545 214.589 235.535 212.752 235.535 210.399 C 235.535 208.062 234.582 206.196 232.659 204.82 C 230.736 203.441 228.106 202.758 224.774 202.758 C 221.657 202.758 219.189 203.441 217.385 204.82 C 215.634 206.147 214.76 208.012 214.76 210.399 C 214.76 212.808 215.608 214.668 217.302 215.985 C 219.059 217.267 221.493 217.899 224.615 217.899 Z M 246.72 223.181 C 245.021 223.181 243.593 222.643 242.446 221.573 L 262.888 194.871 L 243.517 169.546 C 244.613 168.69 245.945 168.251 247.534 168.251 C 248.682 168.251 249.73 168.454 250.657 168.866 C 251.645 169.271 252.407 169.836 252.959 170.543 L 266.749 188.982 L 264.86 191.354 L 265.438 191.739 L 281.361 170.543 C 281.908 169.836 282.658 169.271 283.577 168.866 C 284.566 168.454 285.634 168.251 286.782 168.251 C 287.488 168.251 288.202 168.387 288.916 168.636 C 289.689 168.841 290.311 169.144 290.803 169.546 L 271.423 194.871 L 291.873 221.573 C 290.723 222.643 289.297 223.181 287.603 223.181 C 286.62 223.181 285.685 222.953 284.812 222.492 C 283.996 222.09 283.288 221.499 282.682 220.728 L 267.161 200.225 L 251.645 220.728 C 251.039 221.499 250.3 222.09 249.424 222.492 C 248.605 222.953 247.707 223.181 246.72 223.181 Z M 188.558 299.679 C 183.846 299.679 180.038 298.513 177.142 296.162 C 174.295 293.814 172.873 290.729 172.873 286.905 C 172.873 283.034 174.378 279.92 177.394 277.569 C 180.395 275.182 184.368 273.977 189.295 273.977 C 194.548 273.977 198.882 275.712 202.266 279.177 L 202.6 278.873 C 201.994 278.261 201.308 277.63 200.548 276.963 L 200.548 273.748 C 200.548 271.149 199.662 269.139 197.914 267.704 C 196.163 266.276 193.67 265.565 190.445 265.565 C 184.696 265.565 180.591 267.682 178.126 271.906 C 177.251 271.503 176.511 270.974 175.915 270.298 C 175.357 269.594 175.092 268.878 175.092 268.162 C 175.092 266.787 175.831 265.491 177.304 264.264 C 178.783 262.986 180.727 261.964 183.135 261.199 C 185.6 260.436 188.172 260.052 190.856 260.052 C 196.055 260.052 200.13 261.252 203.084 263.649 C 206.091 266.049 207.604 269.366 207.604 273.591 L 207.604 294.554 C 207.604 296.345 207.051 297.644 205.956 298.457 C 204.867 299.276 203.139 299.679 200.79 299.679 L 200.79 296.087 C 201.937 294.963 202.571 294.307 202.674 294.095 L 202.351 293.789 C 198.792 297.72 194.191 299.679 188.558 299.679 Z M 189.788 294.403 C 193.18 294.403 195.834 293.743 197.75 292.408 C 199.725 291.091 200.704 289.254 200.704 286.905 C 200.704 284.565 199.75 282.695 197.835 281.321 C 195.917 279.944 193.29 279.257 189.957 279.257 C 186.83 279.257 184.368 279.944 182.56 281.321 C 180.806 282.649 179.934 284.511 179.934 286.905 C 179.934 289.305 180.778 291.168 182.484 292.487 C 184.226 293.765 186.671 294.403 189.788 294.403 Z M 211.149 298.99 C 210.052 298.99 209.174 298.714 208.522 298.154 C 207.926 297.595 207.62 296.799 207.62 295.775 C 207.62 295.018 207.86 294.353 208.352 293.789 L 246.863 249.497 L 246.373 249.111 L 244.069 251.638 L 215.423 251.638 C 213.446 251.638 211.945 251.127 210.902 250.105 C 209.865 249.039 209.338 247.487 209.338 245.437 L 252.28 245.437 C 254.64 245.437 255.815 246.512 255.815 248.652 C 255.815 249.424 255.563 250.088 255.074 250.647 L 216.648 294.938 L 217.22 295.323 L 219.436 292.795 L 250.224 292.795 C 252.144 292.795 253.626 293.331 254.66 294.403 C 255.703 295.422 256.221 296.954 256.221 298.99 L 211.149 298.99 Z M 266.544 299.679 C 261.843 299.679 258.035 298.513 255.132 296.162 C 252.286 293.814 250.86 290.729 250.86 286.905 C 250.86 283.034 252.366 279.92 255.374 277.569 C 258.392 275.182 262.36 273.977 267.282 273.977 C 272.543 273.977 276.864 275.712 280.253 279.177 L 280.586 278.873 C 279.987 278.261 279.299 277.63 278.53 276.963 L 278.53 273.748 C 278.53 271.149 277.661 269.139 275.91 267.704 C 274.156 266.276 271.661 265.565 268.43 265.565 C 262.684 265.565 258.579 267.682 256.121 271.906 C 255.238 271.503 254.506 270.974 253.897 270.298 C 253.351 269.594 253.079 268.878 253.079 268.162 C 253.079 266.787 253.81 265.491 255.298 264.264 C 256.769 262.986 258.72 261.964 261.123 261.199 C 263.585 260.436 266.163 260.052 268.854 260.052 C 274.041 260.052 278.12 261.252 281.075 263.649 C 284.09 266.049 285.592 269.366 285.592 273.591 L 285.592 294.554 C 285.592 296.345 285.048 297.644 283.948 298.457 C 282.86 299.276 281.14 299.679 278.782 299.679 L 278.782 296.087 C 279.925 294.963 280.562 294.307 280.67 294.095 L 280.336 293.789 C 276.778 297.72 272.187 299.679 266.544 299.679 Z M 267.783 294.403 C 271.168 294.403 273.827 293.743 275.737 292.408 C 277.711 291.091 278.695 289.254 278.695 286.905 C 278.695 284.565 277.738 282.695 275.822 281.321 C 273.905 279.944 271.285 279.257 267.939 279.257 C 264.82 279.257 262.36 279.944 260.553 281.321 C 258.805 282.649 257.924 284.511 257.924 286.905 C 257.924 289.305 258.774 291.168 260.463 292.487 C 262.225 293.765 264.652 294.403 267.783 294.403 Z" style="fill: rgb(34, 34, 34);"/>
</svg>