<svg width="111" height="58" viewBox="0 0 111 58" fill="none" xmlns="http://www.w3.org/2000/svg">
<path d="M40.1343 1.57822L42.5713 8.87438L42.6439 9.0917L42.8559 9.17861L49.595 11.9412L42.8559 14.7037L42.6439 14.7906L42.5713 15.008L40.1343 22.3041L37.6972 15.008L37.6246 14.7906L37.4126 14.7037L30.6736 11.9412L37.4126 9.17861L37.6246 9.0917L37.6972 8.87438L40.1343 1.57822Z" fill="#27AE60" stroke="#333333"/>
<path d="M74.0975 12.2047L74.1212 12.3028L74.181 12.3839L79.8373 20.0626L71.9234 17.7487L71.7831 17.7076L71.6428 17.7487L63.7288 20.0626L69.3852 12.3839L69.445 12.3028L69.4687 12.2047L71.7831 2.618L74.0975 12.2047Z" fill="#27AE60" stroke="#333333"/>
<path d="M71.1804 28.7563C71.1804 30.229 72.3743 31.423 73.8471 31.423C75.3199 31.423 76.5138 30.229 76.5138 28.7563C76.5138 27.2835 75.3199 26.0896 73.8471 26.0896C72.3743 26.0896 71.1804 27.2835 71.1804 28.7563ZM74.7354 30.3137L75.1697 30.066L74.7354 30.3137ZM100.536 28.7563C100.536 30.229 101.73 31.423 103.202 31.423C104.675 31.423 105.869 30.229 105.869 28.7563C105.869 27.2835 104.675 26.0896 103.202 26.0896C101.73 26.0896 100.536 27.2835 100.536 28.7563ZM73.4128 29.004L74.3011 30.5615L75.1697 30.066L74.2814 28.5086L73.4128 29.004ZM74.3011 30.5615C81.0117 42.3272 98.2743 41.3827 103.661 28.9551L102.744 28.5574C97.6845 40.229 81.4721 41.116 75.1697 30.066L74.3011 30.5615Z" fill="#333333"/>
<path d="M100.357 4.80783L102.744 4.4062L105.13 4.80783L107.288 5.97602L109.006 7.80173L110.112 10.1095L110.494 12.6723L110.112 15.2351L109.006 17.5428L107.288 19.3685L105.13 20.5367L102.744 20.9384L100.357 20.5367L98.1998 19.3685L96.4817 17.5428L95.3751 15.2351L94.9931 12.6723L95.3751 10.1095L96.4817 7.80173L98.1998 5.97602L100.357 4.80783Z" fill="#27AE60" stroke="#333333"/>
<path d="M3.20551 5.67314L9.63223 2.97913L16.059 5.67314L18.7242 12.1849L16.059 18.6966L9.63223 21.3906L3.20551 18.6966L0.54026 12.1849L3.20551 5.67314Z" fill="#27AE60" stroke="#333333"/>
</svg>
