<svg width="116" height="65" viewBox="0 0 116 65" fill="none" xmlns="http://www.w3.org/2000/svg">
<path d="M4.76 34C4.22667 34 3.76 33.8133 3.36 33.44C2.98667 33.04 2.8 32.5733 2.8 32.04V8.76C2.8 6.68 4.05333 5.64 6.56 5.64V30.68H18.84C19.7733 30.68 20.4933 30.9733 21 31.56C21.5067 32.12 21.76 32.9333 21.76 34H4.76ZM26.4072 34.36C24.1139 34.36 22.2605 33.7467 20.8472 32.52C19.4605 31.2933 18.7672 29.68 18.7672 27.68C18.7672 25.6533 19.5005 24.0267 20.9672 22.8C22.4339 21.5467 24.3672 20.92 26.7672 20.92C29.3272 20.92 31.4339 21.8267 33.0872 23.64L33.2472 23.48C32.9539 23.16 32.6205 22.8267 32.2472 22.48V20.8C32.2472 19.44 31.8205 18.3867 30.9672 17.64C30.1139 16.8933 28.9005 16.52 27.3272 16.52C24.5272 16.52 22.5272 17.6267 21.3272 19.84C20.9005 19.6267 20.5405 19.3467 20.2472 19C19.9805 18.6267 19.8472 18.2533 19.8472 17.88C19.8472 17.16 20.2072 16.48 20.9272 15.84C21.6472 15.1733 22.5939 14.64 23.7672 14.24C24.9672 13.84 26.2205 13.64 27.5272 13.64C30.0605 13.64 32.0472 14.2667 33.4872 15.52C34.9539 16.7733 35.6872 18.5067 35.6872 20.72V31.68C35.6872 32.6133 35.4205 33.2933 34.8872 33.72C34.3539 34.1467 33.5139 34.36 32.3672 34.36V32.48C32.9272 31.8933 33.2339 31.5467 33.2872 31.44L33.1272 31.28C31.3939 33.3333 29.1539 34.36 26.4072 34.36ZM27.0072 31.6C28.6605 31.6 29.9539 31.2533 30.8872 30.56C31.8472 29.8667 32.3272 28.9067 32.3272 27.68C32.3272 26.4533 31.8605 25.48 30.9272 24.76C29.9939 24.04 28.7139 23.68 27.0872 23.68C25.5672 23.68 24.3672 24.04 23.4872 24.76C22.6339 25.4533 22.2072 26.4267 22.2072 27.68C22.2072 28.9333 22.6205 29.9067 23.4472 30.6C24.3005 31.2667 25.4872 31.6 27.0072 31.6ZM37.7753 34.36C36.9486 34.36 36.2553 34.08 35.6953 33.52L45.6553 19.56L36.2153 6.32C36.7486 5.86666 37.402 5.64 38.1753 5.64C38.7353 5.64 39.242 5.74666 39.6953 5.96C40.1753 6.17333 40.5486 6.46667 40.8153 6.84L47.5353 16.48L46.6153 17.72L46.8953 17.92L54.6553 6.84C54.922 6.46667 55.282 6.17333 55.7353 5.96C56.2153 5.74666 56.7353 5.64 57.2953 5.64C57.642 5.64 57.9886 5.70666 58.3353 5.84C58.7086 5.94666 59.0153 6.10666 59.2553 6.32L49.8153 19.56L59.7753 33.52C59.2153 34.08 58.522 34.36 57.6953 34.36C57.2153 34.36 56.762 34.24 56.3353 34C55.9353 33.7867 55.5886 33.48 55.2953 33.08L47.7353 22.36L40.1753 33.08C39.882 33.48 39.522 33.7867 39.0953 34C38.6953 34.24 38.2553 34.36 37.7753 34.36ZM65.615 34.36C63.3217 34.36 61.4683 33.7467 60.055 32.52C58.6683 31.2933 57.975 29.68 57.975 27.68C57.975 25.6533 58.7083 24.0267 60.175 22.8C61.6417 21.5467 63.575 20.92 65.975 20.92C68.535 20.92 70.6417 21.8267 72.295 23.64L72.455 23.48C72.1617 23.16 71.8283 22.8267 71.455 22.48V20.8C71.455 19.44 71.0283 18.3867 70.175 17.64C69.3217 16.8933 68.1083 16.52 66.535 16.52C63.735 16.52 61.735 17.6267 60.535 19.84C60.1083 19.6267 59.7483 19.3467 59.455 19C59.1883 18.6267 59.055 18.2533 59.055 17.88C59.055 17.16 59.415 16.48 60.135 15.84C60.855 15.1733 61.8017 14.64 62.975 14.24C64.175 13.84 65.4283 13.64 66.735 13.64C69.2683 13.64 71.255 14.2667 72.695 15.52C74.1617 16.7733 74.895 18.5067 74.895 20.72V31.68C74.895 32.6133 74.6283 33.2933 74.095 33.72C73.5617 34.1467 72.7217 34.36 71.575 34.36V32.48C72.135 31.8933 72.4417 31.5467 72.495 31.44L72.335 31.28C70.6017 33.3333 68.3617 34.36 65.615 34.36ZM66.215 31.6C67.8683 31.6 69.1617 31.2533 70.095 30.56C71.055 29.8667 71.535 28.9067 71.535 27.68C71.535 26.4533 71.0683 25.48 70.135 24.76C69.2017 24.04 67.9217 23.68 66.295 23.68C64.775 23.68 63.575 24.04 62.695 24.76C61.8417 25.4533 61.415 26.4267 61.415 27.68C61.415 28.9333 61.8283 29.9067 62.655 30.6C63.5083 31.2667 64.695 31.6 66.215 31.6ZM76.6231 34C76.0898 34 75.6631 33.8533 75.3431 33.56C75.0498 33.2667 74.9031 32.8533 74.9031 32.32C74.9031 31.92 75.0231 31.5733 75.2631 31.28L94.0231 8.12L93.7831 7.92L92.6631 9.24H78.7031C77.7431 9.24 77.0098 8.97333 76.5031 8.44C75.9965 7.88 75.7431 7.06667 75.7431 6H96.6631C97.8098 6 98.3831 6.56 98.3831 7.68C98.3831 8.08 98.2631 8.42667 98.0231 8.72L79.3031 31.88L79.5831 32.08L80.6631 30.76H95.6631C96.5965 30.76 97.3165 31.04 97.8231 31.6C98.3298 32.1333 98.5831 32.9333 98.5831 34H76.6231ZM103.612 34.36C101.319 34.36 99.4652 33.7467 98.0519 32.52C96.6652 31.2933 95.9719 29.68 95.9719 27.68C95.9719 25.6533 96.7052 24.0267 98.1719 22.8C99.6385 21.5467 101.572 20.92 103.972 20.92C106.532 20.92 108.639 21.8267 110.292 23.64L110.452 23.48C110.159 23.16 109.825 22.8267 109.452 22.48V20.8C109.452 19.44 109.025 18.3867 108.172 17.64C107.319 16.8933 106.105 16.52 104.532 16.52C101.732 16.52 99.7319 17.6267 98.5319 19.84C98.1052 19.6267 97.7452 19.3467 97.4519 19C97.1852 18.6267 97.0519 18.2533 97.0519 17.88C97.0519 17.16 97.4119 16.48 98.1319 15.84C98.8519 15.1733 99.7985 14.64 100.972 14.24C102.172 13.84 103.425 13.64 104.732 13.64C107.265 13.64 109.252 14.2667 110.692 15.52C112.159 16.7733 112.892 18.5067 112.892 20.72V31.68C112.892 32.6133 112.625 33.2933 112.092 33.72C111.559 34.1467 110.719 34.36 109.572 34.36V32.48C110.132 31.8933 110.439 31.5467 110.492 31.44L110.332 31.28C108.599 33.3333 106.359 34.36 103.612 34.36ZM104.212 31.6C105.865 31.6 107.159 31.2533 108.092 30.56C109.052 29.8667 109.532 28.9067 109.532 27.68C109.532 26.4533 109.065 25.48 108.132 24.76C107.199 24.04 105.919 23.68 104.292 23.68C102.772 23.68 101.572 24.04 100.692 24.76C99.8385 25.4533 99.4119 26.4267 99.4119 27.68C99.4119 28.9333 99.8252 29.9067 100.652 30.6C101.505 31.2667 102.692 31.6 104.212 31.6Z" fill="black"/>
<path d="M78.3333 42C78.3333 43.4728 79.5272 44.6667 81 44.6667C82.4728 44.6667 83.6667 43.4728 83.6667 42C83.6667 40.5272 82.4728 39.3333 81 39.3333C79.5272 39.3333 78.3333 40.5272 78.3333 42ZM82.0323 43.5478L82.4483 43.2703L82.0323 43.5478ZM105.333 42C105.333 43.4728 106.527 44.6667 108 44.6667C109.473 44.6667 110.667 43.4728 110.667 42C110.667 40.5272 109.473 39.3333 108 39.3333C106.527 39.3333 105.333 40.5272 105.333 42ZM80.584 42.2774L81.6164 43.8252L82.4483 43.2703L81.416 41.7226L80.584 42.2774ZM81.6164 43.8252C88.2254 53.7338 103.061 52.8495 108.446 42.2261L107.554 41.7739C102.515 51.7148 88.6326 52.5422 82.4483 43.2703L81.6164 43.8252Z" fill="black"/>
</svg>
